<?xml version="1.0" encoding="utf-8"?>
<!-- Generator: Adobe Illustrator 17.0.2, SVG Export Plug-In . SVG Version: 6.00 Build 0)  -->
<!DOCTYPE svg PUBLIC "-//W3C//DTD SVG 1.1//EN" "http://www.w3.org/Graphics/SVG/1.1/DTD/svg11.dtd" [
	<!ENTITY ns_flows "http://ns.adobe.com/Flows/1.0/">
	<!ENTITY ns_extend "http://ns.adobe.com/Extensibility/1.0/">
	<!ENTITY ns_ai "http://ns.adobe.com/AdobeIllustrator/10.0/">
	<!ENTITY ns_graphs "http://ns.adobe.com/Graphs/1.0/">
]>
<svg version="1.1" xmlns:x="&ns_extend;" xmlns:i="&ns_ai;" xmlns:graph="&ns_graphs;"
	 xmlns="http://www.w3.org/2000/svg" xmlns:xlink="http://www.w3.org/1999/xlink" xmlns:a="http://ns.adobe.com/AdobeSVGViewerExtensions/3.0/"
	 x="0px" y="0px" width="68px" height="65.7px" viewBox="0 0 68 65.7" style="enable-background:new 0 0 68 65.7;"
	 xml:space="preserve">
<g id="Layer_1">
	<g>
		<path style="fill:none;" d="M41.7,19.3c0-0.7-0.5-1.2-1.2-1.2c-0.6,0-1.2,0.5-1.2,1.2c0,0.4,0.2,0.8,0.6,1l-1.3,9.4l-0.8,5.9
			c2.9,2.6,5.5,6,7.5,9.3l-4.2-24.6C41.6,20,41.7,19.7,41.7,19.3z"/>
		<path d="M68,33.3h-2.7c0,0-0.1,0.8-1,0.8s-0.9-0.8-0.9-0.8s0-0.1-2.5,0c0.9,0.1,1.4,1.9,1.4,1.9s0.1,1,0,9.5
			c-0.9,2.7-3,0.7-3.6-0.9c-0.5-1.6-2.5-9.3-0.3-10.3c0.1-0.1,0.4-0.1,0.4-0.2c0-0.1-0.3-0.1-0.4-0.2c-0.4-0.4-1.1-1.4-0.9-4.9
			c0.3-5.2,2-7.8,3.2-7.9c1.2-0.1,2.7,0.4,2.8,2.5c0,2.1-1.7,2.3-1.7,2.3s-0.8,2.2,1.6,2.4c0.3,3.5,1.8,4.1,1.8,4.1v-13
			c0-1.1-0.6,0-0.6,0L64,19.6c0,0-2.5-2.1-6.3,0.2c-3.7,2.2-4.3,8.3-4.4,10.8c0.4,0.9,1,1.7,2,2.4c0.5,0.4,0.5,0.9,0.2,1.3
			c-1.6,1.7-1.2,3.9-0.8,5.9c0.2,1.2,0.4,2.5,0.6,3.7c1.4,2.3,3.2,3.8,5.1,3.8c2.9,0,4.1-2.5,4.1-2.5s-0.1,1.4,0.7,2.1
			c0.7,0.6,1.1,0.3,1.1,0.3s-0.1-8.2-0.1-10.7S68,33.3,68,33.3z"/>
		<path d="M60.9,58.7c-2.5,0.1-2.2,3.2-1.1,3.2c-0.4,1-1.8,0.8-2.5,0.2c-0.4-0.4-0.6-0.9-0.8-1.7c-0.2-0.7-0.5-1.7-0.7-3.1
			c-1-5.7-2-11.4-2.9-17c-0.4-2.1-0.8-4.2,0.8-5.9c0.3-0.4,0.3-0.9-0.2-1.3c-2.2-1.6-2.5-3.5-2.9-5.9c-0.8-4.5-1.6-8.9-2.5-13.3
			c-0.3-2,0.4-4.5,2.6-4.7c0.5,0,0.3-0.5,0-0.5c-0.1,0-0.2,0-0.2,0c-1.7,0.2-2.6-2.2-5-0.8c0-3.9-1.2-4.5-3.2-7.5
			c-0.2-0.2-0.6-0.2-0.8,0c-2,3-3.2,3.6-3.2,7.5c-2.5-1.4-3.4,1-5,0.8c-0.5,0.1-0.5,0.6,0,0.5c2.5,0.3,3.2,2.3,2.8,4.7l-2.2,15.9
			l-0.4,2.5c-8-5.3-19.4-8.5-26.8-1.2c-6.2,6.3-4,17.2,5.7,17.2c3.2,0,5.9-1.5,6.2-4.5c0.1-0.8-0.1-1.5-0.5-2.3
			c-0.2-0.4-0.5-0.6-0.8-0.9c0.5-0.5,0.8-1.1,0.9-1.8c0.1-0.5,0.1-1.1-0.2-1.6c-0.2-0.2-0.3-0.5-0.5-0.7c-0.3-0.2-0.5-0.1-0.5,0.2
			c-0.2,0.5-0.5,0.8-1,1.2c-1,0.5-2.1,0.4-2.8-0.5c-0.4-0.5-0.5-1.2-0.6-1.8c-0.1-1.8,0.9-3.1,2.4-4.2c2.5-1.8,6.6-1.5,9.4-0.8
			c9.9,2.2,17.1,10.3,21.9,18.6l0.1,0.5c-3.9-5.6-7.5-10.4-13.8-13.3c-3-1.5-9.8-2.8-10.7,1.7l1,0.5c-0.6,0.5-1.1,1.1-1.5,1.7
			c-0.4,0.8-0.8,1.5-0.8,2.4c0.1,0.9,0.7,1.7,1.3,2.4c0.4,0.3,0.8,0.6,1.2,0.8c0.4,0.2,0.8,0.5,1.2,0.6c-0.1,1.2,1.1,2.1,2.2,2
			c0.2,0,0.4-0.2,0.3-0.5c-0.2-0.5-0.2-1.2,0-1.7c0.2-0.5,0.5-0.8,0.9-1.2c0.8-0.8,2-1.4,3.2-1.5c0.4-0.1,0.7-0.1,1.2-0.1L31,50.8
			c-1.6,0.2-3.2,0.6-4.7,1.3c-1.8,0.9-3.9,2.1-6.2,3.6c-4.9,3-8.9,4.9-12.4,4.7c-3.5-0.2-5.3-1.6-5.5-2.6c0-0.6,0.5-1.1,0.9-0.8
			c1.5,1.3,3.9-0.8,2-3c-0.8-1-2.7-1.1-4,0.3c-1.7,2-1.5,4.1,0.4,6.2c2,2.1,5.2,3.3,7.2,3.5c0,0,2.8,3.7,7.3-0.3
			c0,0,2.6,2.1,4.1,0.1c0.1-0.1,0-0.1-0.1-0.2c-0.2,0-0.4-0.2-0.5-0.4c-0.4-0.6-0.6-1.3-0.5-2.1c0.2-1.4,2.3-4.2,5.4-6.5
			c0.9-0.6,1.4-0.8,0.8-0.2c-1.1,1.1-2.8,3.2-3.8,5.2c-1.3,2.8-0.3,4.7,0.4,3.7c0,0,3,3.3,4.2,0c0,0,0.8,0.5,1.2-0.2
			c0.1,0,0.1-0.1,0-0.2c-0.2-0.1-1.2-0.8-1.4-2.4c-0.2-1.8,0.8-4.9,3.2-6.7c2.4-1.8,5.9-1.9,8.1,0.2c2.1,2,2.5,3.8,2.1,5.4
			c-0.5,1.9-2.2,3-3.2,2.5c-1-0.5-1-1.6-0.4-2.1c0.6-0.5,1.2-0.5,1.5-0.2c0.3,0.1,0.5,0.2,0.6-0.3c0.1-0.2,0.2-0.8,0-1.5
			c-0.1-0.4-0.3-0.8-0.8-1.3c-1.8-1.8-4.5-1.2-6.2,0.6c-2.1,2.4-2,5.5,0.4,7.4c2.7,2.1,6.3,1.5,8.5-1.2c2.6-3.2,1.8-7.7-1.3-10.3
			c-0.8-0.6-1.6-1.2-2.5-1.5l0.9-6.8c2.6,1.2,5.1,3,6.6,4.5c1.5,1.5,2.6,3.2,3.6,4.9l0.2,1c0.7,4.5,0.6,7.2-0.2,8.1
			c-0.5,0.3-0.4,0.9,0.3,0.9h3.9v-0.1c0-0.7,0.5-1.2,1.2-1.2c0.6,0,1.2,0.5,1.2,1.2V64c1.8,0,3.8,0.1,5.6,0c1.5-0.1,3.1-0.5,3.6-2.2
			C63.3,60.5,62.7,58.6,60.9,58.7z M37.9,35.5l0.8-5.9l1.3-9.4c-0.4-0.2-0.6-0.6-0.6-1c0-0.7,0.5-1.2,1.2-1.2c0.7,0,1.2,0.5,1.2,1.2
			c0,0.4-0.2,0.7-0.5,0.9l4.2,24.6C43.4,41.5,40.8,38.1,37.9,35.5z"/>
	</g>
</g>
<g id="Layer_2" style="display:none;">
</g>
</svg>
