<?xml version="1.0" encoding="utf-8"?>
<!-- Generator: Adobe Illustrator 17.0.2, SVG Export Plug-In . SVG Version: 6.00 Build 0)  -->
<!DOCTYPE svg PUBLIC "-//W3C//DTD SVG 1.1//EN" "http://www.w3.org/Graphics/SVG/1.1/DTD/svg11.dtd" [
	<!ENTITY ns_flows "http://ns.adobe.com/Flows/1.0/">
	<!ENTITY ns_extend "http://ns.adobe.com/Extensibility/1.0/">
	<!ENTITY ns_ai "http://ns.adobe.com/AdobeIllustrator/10.0/">
	<!ENTITY ns_graphs "http://ns.adobe.com/Graphs/1.0/">
]>
<svg version="1.1" xmlns:x="&ns_extend;" xmlns:i="&ns_ai;" xmlns:graph="&ns_graphs;"
	 xmlns="http://www.w3.org/2000/svg" xmlns:xlink="http://www.w3.org/1999/xlink" xmlns:a="http://ns.adobe.com/AdobeSVGViewerExtensions/3.0/"
	 x="0px" y="0px" width="792px" height="612px" viewBox="0 0 792 612" style="enable-background:new 0 0 792 612;"
	 xml:space="preserve">
<g id="Layer_1">
	<g>
		<path style="fill:none;" d="M144.3,109.3c0-1.4-0.9-2.5-2.3-2.5c-1.2,0-2.3,1.1-2.3,2.5c0,0.8,0.5,1.5,1.2,2l-2.6,18.8l-1.7,11.7
			c5.9,5.2,11.1,12,15.1,18.6l-8.3-49.3C144,110.7,144.3,110.1,144.3,109.3z"/>
		<path d="M196.8,137.4h-5.5c0,0-0.2,1.6-2,1.6c-1.8,0-1.8-1.6-1.8-1.6s0-0.2-4.9,0c1.8,0.2,2.7,3.8,2.7,3.8s0.2,2,0,19
			c-1.8,5.5-6,1.5-7.1-1.8c-1-3.1-5.1-18.7-0.7-20.6c0.2-0.1,0.8-0.1,0.8-0.4c0-0.2-0.5-0.1-0.8-0.4c-0.9-0.8-2.1-2.8-1.8-9.7
			c0.5-10.4,4-15.6,6.4-15.7c2.4-0.2,5.5,0.7,5.5,4.9c0.1,4.2-3.3,4.6-3.3,4.6s-1.6,4.4,3.3,4.8c0.5,7,3.7,8.2,3.7,8.2v-26
			c0-2.2-1.3,0-1.3,0l-1.3,1.8c0,0-5-4.2-12.6,0.4c-7.3,4.4-8.5,16.6-8.8,21.6c0.8,1.8,2,3.3,4,4.8c1.1,0.8,1.1,1.8,0.5,2.6
			c-3.2,3.4-2.5,7.7-1.7,11.9c0.4,2.5,0.8,4.9,1.2,7.4c2.8,4.5,6.4,7.5,10.3,7.5c5.9,0,8.2-4.9,8.2-4.9s-0.2,2.7,1.3,4.1
			c1.3,1.3,2.2,0.5,2.2,0.5s-0.2-16.4-0.2-21.5C193.2,139.2,196.8,137.4,196.8,137.4z"/>
		<path d="M182.7,188.2c-4.9,0.2-4.5,6.3-2.2,6.3c-0.8,2-3.5,1.7-5.1,0.3c-0.8-0.8-1.2-1.8-1.7-3.4c-0.5-1.4-0.9-3.4-1.4-6.2
			c-2-11.4-4-22.8-5.9-34c-0.8-4.2-1.5-8.5,1.7-11.9c0.6-0.8,0.6-1.8-0.5-2.6c-4.5-3.2-4.9-6.9-5.9-11.9c-1.7-8.9-3.2-17.9-4.9-26.6
			c-0.6-4,0.8-8.9,5.2-9.4c0.9,0,0.6-1.1,0-1.1c-0.2,0-0.3,0-0.5,0c-3.4,0.3-5.2-4.5-10-1.7c0-7.7-2.5-8.9-6.5-14.9
			c-0.3-0.5-1.2-0.5-1.5,0c-4,6-6.5,7.2-6.5,14.9c-4.9-2.8-6.8,2-10,1.7c-1.1,0.2-1.1,1.2,0,1.1c4.9,0.6,6.3,4.6,5.7,9.4l-4.3,31.9
			l-0.8,5.1c-16-10.6-38.8-16.9-53.6-2.5c-12.5,12.6-8,34.4,11.4,34.4c6.3,0,11.9-3.1,12.5-9.1c0.2-1.5-0.2-3.1-0.9-4.6
			c-0.5-0.8-1.1-1.2-1.7-1.8c0.9-0.9,1.7-2.2,1.8-3.5c0.2-1.1,0.2-2.2-0.5-3.2c-0.3-0.5-0.6-0.9-1.1-1.4c-0.6-0.3-0.9-0.2-1.1,0.5
			c-0.5,0.9-1.1,1.7-2,2.3c-2,1.1-4.2,0.8-5.7-0.9c-0.8-1.1-1.1-2.3-1.2-3.7c-0.2-3.7,1.8-6.2,4.8-8.3c4.9-3.7,13.2-2.9,18.8-1.7
			c19.7,4.5,34.2,20.6,43.7,37.3l0.2,0.9c-7.7-11.2-14.9-20.8-27.6-26.6c-6-2.9-19.6-5.7-21.4,3.4l2,1.1c-1.2,0.9-2.2,2.2-2.9,3.4
			c-0.8,1.5-1.7,3.1-1.5,4.8c0.2,1.8,1.4,3.4,2.6,4.8c0.8,0.6,1.5,1.2,2.3,1.7c0.8,0.5,1.5,0.9,2.5,1.2c-0.2,2.5,2.2,4.2,4.5,4
			c0.5,0,0.8-0.5,0.6-0.9c-0.5-1.1-0.5-2.3,0-3.4c0.3-0.9,1.1-1.7,1.8-2.3c1.7-1.7,4-2.8,6.5-3.1c0.8-0.2,1.4-0.2,2.3-0.2l-2.2,14.8
			c-3.2,0.3-6.5,1.2-9.4,2.6c-3.7,1.8-7.7,4.2-12.3,7.2c-9.9,6-17.9,9.9-24.8,9.4c-7.1-0.5-10.6-3.2-10.9-5.2c0-1.2,1.1-2.2,1.8-1.7
			c2.9,2.6,7.7-1.7,4-6c-1.7-2-5.4-2.2-8,0.6c-3.4,4-2.9,8.2,0.8,12.5c4,4.2,10.5,6.6,14.5,6.9c0,0,5.5,7.4,14.6-0.6
			c0,0,5.2,4.2,8.2,0.2c0.2-0.2,0-0.2-0.2-0.3c-0.3,0-0.8-0.3-1.1-0.8c-0.8-1.2-1.2-2.6-1.1-4.2c0.3-2.8,4.6-8.5,10.8-13.1
			c1.8-1.2,2.8-1.5,1.5-0.5c-2.2,2.2-5.7,6.5-7.5,10.3c-2.6,5.5-0.6,9.4,0.8,7.4c0,0,6,6.6,8.3,0c0,0,1.7,1.1,2.5-0.3
			c0.2,0,0.2-0.2,0-0.3c-0.5-0.2-2.5-1.5-2.8-4.8c-0.5-3.5,1.7-9.9,6.3-13.4c4.8-3.7,11.7-3.9,16.2,0.3c4.2,4,5.1,7.5,4.2,10.8
			c-0.9,3.9-4.3,6-6.5,4.9c-2-0.9-2-3.2-0.8-4.2c1.2-0.9,2.5-1.1,3.1-0.5c0.6,0.2,0.9,0.3,1.2-0.6c0.2-0.3,0.5-1.5,0-2.9
			c-0.2-0.8-0.6-1.7-1.5-2.6c-3.5-3.5-9.1-2.3-12.3,1.2c-4.2,4.8-4,11.1,0.8,14.8c5.4,4.2,12.6,2.9,16.9-2.5
			c5.2-6.5,3.5-15.4-2.6-20.6c-1.5-1.2-3.2-2.3-5.1-2.9l1.8-13.6c5.2,2.3,10.2,6,13.2,9.1c2.9,2.9,5.2,6.3,7.2,9.7l0.5,2
			c1.4,8.9,1.2,14.5-0.3,16.2c-1.1,0.6-0.8,1.8,0.6,1.8h7.9v-0.2c0-1.4,1.1-2.5,2.5-2.5c1.2,0,2.3,1.1,2.3,2.5v0.2
			c3.7,0,7.5,0.2,11.2,0c2.9-0.2,6.2-1.1,7.2-4.3C187.4,191.7,186.2,188.1,182.7,188.2z M136.6,141.8l1.7-11.7l2.6-18.8
			c-0.8-0.5-1.2-1.2-1.2-2c0-1.4,1.1-2.5,2.3-2.5c1.4,0,2.3,1.1,2.3,2.5c0,0.8-0.3,1.4-0.9,1.8l8.3,49.3
			C147.7,153.9,142.5,147.1,136.6,141.8z"/>
	</g>
	<g>
		<path style="fill:none;" d="M144.3,319.9c0-1.4-0.9-2.5-2.3-2.5c-1.2,0-2.3,1.1-2.3,2.5c0,0.8,0.5,1.5,1.2,2l-2.6,18.8l-1.7,11.7
			c5.9,5.2,11.1,12,15.1,18.6l-8.3-49.3C144,321.3,144.3,320.7,144.3,319.9z"/>
		<path d="M182.7,398.8c-4.9,0.2-4.5,6.3-2.2,6.3c-0.8,2-3.5,1.7-5.1,0.3c-0.8-0.8-1.2-1.8-1.7-3.4c-0.5-1.4-0.9-3.4-1.4-6.2
			c-2-11.4-4-22.8-5.9-34c-0.8-4.2-1.5-8.5,1.7-11.9c0.6-0.8,0.6-1.8-0.5-2.6c-4.5-3.2-4.9-6.9-5.9-11.9c-1.7-8.9-3.2-17.9-4.9-26.6
			c-0.6-4,0.8-8.9,5.2-9.4c0.9,0,0.6-1.1,0-1.1c-0.2,0-0.3,0-0.5,0c-3.4,0.3-5.2-4.5-10-1.7c0-7.7-2.5-8.9-6.5-14.9
			c-0.3-0.5-1.2-0.5-1.5,0c-4,6-6.5,7.2-6.5,14.9c-4.9-2.8-6.8,2-10,1.7c-1.1,0.2-1.1,1.2,0,1.1c4.9,0.6,6.3,4.6,5.7,9.4l-4.3,31.9
			l-0.8,5.1c-16-10.6-38.8-16.9-53.6-2.5c-12.5,12.6-8,34.4,11.4,34.4c6.3,0,11.9-3.1,12.5-9.1c0.2-1.5-0.2-3.1-0.9-4.6
			c-0.5-0.8-1.1-1.2-1.7-1.8c0.9-0.9,1.7-2.2,1.8-3.5c0.2-1.1,0.2-2.2-0.5-3.2c-0.3-0.5-0.6-0.9-1.1-1.4c-0.6-0.3-0.9-0.2-1.1,0.5
			c-0.5,0.9-1.1,1.7-2,2.3c-2,1.1-4.2,0.8-5.7-0.9c-0.8-1.1-1.1-2.3-1.2-3.7c-0.2-3.7,1.8-6.2,4.8-8.3c4.9-3.7,13.2-2.9,18.8-1.7
			c19.7,4.5,34.2,20.6,43.7,37.3l0.2,0.9c-7.7-11.2-14.9-20.8-27.6-26.6c-6-2.9-19.6-5.7-21.4,3.4l2,1.1c-1.2,0.9-2.2,2.2-2.9,3.4
			c-0.8,1.5-1.7,3.1-1.5,4.8c0.2,1.8,1.4,3.4,2.6,4.8c0.8,0.6,1.5,1.2,2.3,1.7c0.8,0.5,1.5,0.9,2.5,1.2c-0.2,2.5,2.2,4.2,4.5,4
			c0.5,0,0.8-0.5,0.6-0.9c-0.5-1.1-0.5-2.3,0-3.4c0.3-0.9,1.1-1.7,1.8-2.3c1.7-1.7,4-2.8,6.5-3.1c0.8-0.2,1.4-0.2,2.3-0.2l-2.2,14.8
			c-3.2,0.3-6.5,1.2-9.4,2.6c-3.7,1.8-7.7,4.2-12.3,7.2c-9.9,6-17.9,9.9-24.8,9.4c-7.1-0.5-10.6-3.2-10.9-5.2c0-1.2,1.1-2.2,1.8-1.7
			c2.9,2.6,7.7-1.7,4-6c-1.7-2-5.4-2.2-8,0.6c-3.4,4-2.9,8.2,0.8,12.5c4,4.2,10.5,6.6,14.5,6.9c0,0,5.5,7.4,14.6-0.6
			c0,0,5.2,4.2,8.2,0.2c0.2-0.2,0-0.2-0.2-0.3c-0.3,0-0.8-0.3-1.1-0.8c-0.8-1.2-1.2-2.6-1.1-4.2c0.3-2.8,4.6-8.5,10.8-13.1
			c1.8-1.2,2.8-1.5,1.5-0.5c-2.2,2.2-5.7,6.5-7.5,10.3c-2.6,5.5-0.6,9.4,0.8,7.4c0,0,6,6.6,8.3,0c0,0,1.7,1.1,2.5-0.3
			c0.2,0,0.2-0.2,0-0.3c-0.5-0.2-2.5-1.5-2.8-4.8c-0.5-3.5,1.7-9.9,6.3-13.4c4.8-3.7,11.7-3.9,16.2,0.3c4.2,4,5.1,7.5,4.2,10.8
			c-0.9,3.9-4.3,6-6.5,4.9c-2-0.9-2-3.2-0.8-4.2c1.2-0.9,2.5-1.1,3.1-0.5c0.6,0.2,0.9,0.3,1.2-0.6c0.2-0.3,0.5-1.5,0-2.9
			c-0.2-0.8-0.6-1.7-1.5-2.6c-3.5-3.5-9.1-2.3-12.3,1.2c-4.2,4.8-4,11.1,0.8,14.8c5.4,4.2,12.6,2.9,16.9-2.5
			c5.2-6.5,3.5-15.4-2.6-20.6c-1.5-1.2-3.2-2.3-5.1-2.9l1.8-13.6c5.2,2.3,10.2,6,13.2,9.1c2.9,2.9,5.2,6.3,7.2,9.7l0.5,2
			c1.4,8.9,1.2,14.5-0.3,16.2c-1.1,0.6-0.8,1.8,0.6,1.8h7.9v-0.2c0-1.4,1.1-2.5,2.5-2.5c1.2,0,2.3,1.1,2.3,2.5v0.2
			c3.7,0,7.5,0.2,11.2,0c2.9-0.2,6.2-1.1,7.2-4.3C187.4,402.3,186.2,398.6,182.7,398.8z M136.6,352.4l1.7-11.7l2.6-18.8
			c-0.8-0.5-1.2-1.2-1.2-2c0-1.4,1.1-2.5,2.3-2.5c1.4,0,2.3,1.1,2.3,2.5c0,0.8-0.3,1.4-0.9,1.8l8.3,49.3
			C147.7,364.4,142.5,357.7,136.6,352.4z"/>
	</g>
	<rect x="224.4" y="103.3" style="fill:none;" width="326.4" height="51.4"/>
	<text transform="matrix(0.88 0 0 1 224.4 141.2634)" style="font-family:'BanglaMN'; font-size:47.8673;">Asaf Gerchak</text>
	<rect x="224.4" y="144.2" style="fill:none;" width="265.1" height="60.8"/>
	<text transform="matrix(0.7 0 0 0.7 224.4001 167.7274)" style="font-family:'BanglaMN'; font-size:29.6642; letter-spacing:10;">coder</text>
	<text transform="matrix(1 0 0 1 337.4406 167.7274)" style="font-family:'BanglaMN'; font-size:29.6642; letter-spacing:15;"> </text>
	<text transform="matrix(1 0 0 1 361.9743 167.7274)" style="font-family:'Didot-Italic'; font-size:20;">o</text>
	<text transform="matrix(1 0 0 1 372.3937 167.7274)" style="font-family:'Didot-Italic'; font-size:20; letter-spacing:3;">f</text>
	<text transform="matrix(1 0 0 1 382.5539 167.7274)" style="font-family:'Didot-Italic'; font-size:20; letter-spacing:21;"> </text>
	<text transform="matrix(0.7 0 0 0.7 408.6584 167.7274)" style="font-family:'BanglaMN'; font-size:29.6642; letter-spacing:10;">note</text>
</g>
<g id="Layer_2" style="display:none;">
</g>
</svg>
