<?xml version="1.0" encoding="utf-8"?>
<!-- Generator: Adobe Illustrator 17.0.2, SVG Export Plug-In . SVG Version: 6.00 Build 0)  -->
<!DOCTYPE svg PUBLIC "-//W3C//DTD SVG 1.1//EN" "http://www.w3.org/Graphics/SVG/1.1/DTD/svg11.dtd" [
	<!ENTITY ns_flows "http://ns.adobe.com/Flows/1.0/">
	<!ENTITY ns_extend "http://ns.adobe.com/Extensibility/1.0/">
	<!ENTITY ns_ai "http://ns.adobe.com/AdobeIllustrator/10.0/">
	<!ENTITY ns_graphs "http://ns.adobe.com/Graphs/1.0/">
]>
<svg version="1.1" id="Layer_1" xmlns:x="&ns_extend;" xmlns:i="&ns_ai;" xmlns:graph="&ns_graphs;"
	 xmlns="http://www.w3.org/2000/svg" xmlns:xlink="http://www.w3.org/1999/xlink" xmlns:a="http://ns.adobe.com/AdobeSVGViewerExtensions/3.0/"
	 x="0px" y="0px" width="338.7px" height="84.9px" viewBox="-91.3 -59.1 338.7 84.9"
	 style="enable-background:new -91.3 -59.1 338.7 84.9;" xml:space="preserve">
<g>
	<path style="fill:none;" d="M7.9,11c0.8-0.2,1.5-0.6,2-1.1c0.6-0.5,1-1.1,1.3-1.9c0.3-0.8,0.5-1.7,0.5-2.8s-0.2-2.1-0.5-2.8
		S10.5,0.9,10,0.4c-0.6-0.5-1.2-0.9-2-1.1C7.2-1,6.3-1.1,5.4-1.1H1.8v12.5h3.5C6.3,11.4,7.2,11.3,7.9,11z"/>
	<path style="fill:none;" d="M-11.3,7.7c0.3-0.8,0.5-1.7,0.5-2.6s-0.2-1.8-0.5-2.6c-0.3-0.8-0.7-1.5-1.3-2.1c-0.6-0.6-1.2-1.1-2-1.4
		c-0.8-0.3-1.6-0.5-2.6-0.5c-0.9,0-1.8,0.2-2.6,0.5c-0.8,0.3-1.4,0.8-2,1.4c-0.6,0.6-1,1.3-1.3,2.1c-0.3,0.8-0.5,1.7-0.5,2.6
		s0.2,1.8,0.5,2.6c0.3,0.8,0.7,1.5,1.3,2.1c0.6,0.6,1.2,1.1,2,1.4c0.8,0.3,1.6,0.5,2.6,0.5c0.9,0,1.8-0.2,2.6-0.5
		c0.8-0.3,1.4-0.8,2-1.4C-12.1,9.3-11.6,8.5-11.3,7.7z"/>
	<path style="fill:none;" d="M48.6-0.6c-0.4-0.2-0.8-0.3-1.2-0.4c-0.5-0.1-0.9-0.1-1.4-0.1h-2.5v5H45c0.5,0,1.1,0,1.7,0
		c0.6,0,1.1-0.1,1.6-0.3c0.5-0.2,0.8-0.4,1.1-0.7c0.3-0.3,0.4-0.8,0.4-1.4c0-0.5-0.1-1-0.3-1.3C49.2-0.2,48.9-0.5,48.6-0.6z"/>
	<path d="M-33.9,9.6c-0.6,0.7-1.2,1.3-2,1.7c-0.8,0.4-1.6,0.6-2.6,0.6c-0.9,0-1.7-0.2-2.5-0.5c-0.7-0.3-1.4-0.8-1.9-1.4
		c-0.5-0.6-1-1.3-1.3-2.1c-0.3-0.8-0.5-1.7-0.5-2.6c0-0.9,0.2-1.7,0.5-2.5c0.3-0.8,0.7-1.5,1.3-2.1c0.5-0.6,1.2-1.1,1.9-1.5
		c0.7-0.4,1.6-0.5,2.4-0.5c0.8,0,1.5,0.2,2.2,0.5c0.7,0.3,1.3,0.8,1.8,1.4l0.1,0.2l2.1-1.5l-0.1-0.2c-0.7-1-1.6-1.6-2.7-2.1
		c-1.1-0.4-2.2-0.6-3.3-0.6c-1.3,0-2.4,0.2-3.5,0.7c-1.1,0.5-2,1.1-2.7,1.9c-0.8,0.8-1.4,1.8-1.8,2.8c-0.4,1.1-0.6,2.3-0.6,3.5
		c0,1.3,0.2,2.5,0.7,3.6c0.4,1.1,1.1,2,1.8,2.8c0.8,0.8,1.7,1.4,2.8,1.9c1.1,0.4,2.2,0.7,3.4,0.7c1.4,0,2.6-0.2,3.7-0.7
		c1.1-0.5,2-1.2,2.8-2.3l0.1-0.2l-1.8-1.5L-33.9,9.6z"/>
	<path d="M-10.8-1.3c-0.8-0.8-1.7-1.4-2.8-1.9c-1.1-0.4-2.3-0.7-3.6-0.7c-1.3,0-2.5,0.2-3.6,0.7c-1.1,0.4-2,1.1-2.8,1.9
		c-0.8,0.8-1.4,1.7-1.9,2.8c-0.4,1.1-0.7,2.3-0.7,3.6c0,1.3,0.2,2.5,0.7,3.6c0.4,1.1,1.1,2,1.9,2.8c0.8,0.8,1.7,1.4,2.8,1.9
		c1.1,0.4,2.3,0.7,3.6,0.7s2.5-0.2,3.6-0.7c1.1-0.4,2-1.1,2.8-1.9C-10,10.8-9.4,9.8-9,8.7c0.4-1.1,0.7-2.3,0.7-3.6
		c0-1.3-0.2-2.5-0.7-3.6C-9.4,0.5-10-0.5-10.8-1.3z M-17.2,11.8c-0.9,0-1.8-0.2-2.6-0.5c-0.8-0.3-1.4-0.8-2-1.4
		c-0.6-0.6-1-1.3-1.3-2.1c-0.3-0.8-0.5-1.7-0.5-2.6s0.2-1.8,0.5-2.6c0.3-0.8,0.7-1.5,1.3-2.1c0.6-0.6,1.2-1.1,2-1.4
		c0.8-0.3,1.6-0.5,2.6-0.5c0.9,0,1.8,0.2,2.6,0.5c0.8,0.3,1.4,0.8,2,1.4c0.6,0.6,1,1.3,1.3,2.1c0.3,0.8,0.5,1.7,0.5,2.6
		s-0.2,1.8-0.5,2.6c-0.3,0.8-0.7,1.5-1.3,2.1c-0.6,0.6-1.2,1.1-2,1.4C-15.4,11.6-16.3,11.8-17.2,11.8z"/>
	<path d="M13,0.2C12.5-0.5,12-1,11.4-1.5c-0.6-0.4-1.2-0.8-1.8-1.1C9.1-2.8,8.4-3.1,7.8-3.2C7.2-3.3,6.6-3.4,6-3.4h-6.6v17H6
		c0.6,0,1.2-0.1,1.8-0.2c0.6-0.1,1.3-0.3,1.9-0.6c0.6-0.3,1.2-0.6,1.8-1.1c0.6-0.4,1.1-1,1.5-1.6c0.4-0.6,0.8-1.4,1-2.2
		c0.3-0.8,0.4-1.8,0.4-2.8s-0.1-2-0.4-2.8C13.7,1.5,13.4,0.8,13,0.2z M1.8-1.1h3.5c0.9,0,1.8,0.1,2.6,0.4c0.8,0.2,1.5,0.6,2,1.1
		c0.6,0.5,1,1.1,1.3,1.9s0.5,1.7,0.5,2.8S11.6,7.2,11.3,8C11,8.8,10.5,9.4,10,9.9c-0.6,0.5-1.2,0.9-2,1.1c-0.8,0.2-1.7,0.4-2.6,0.4
		H1.8V-1.1z"/>
	<polygon points="24.7,5.9 32.6,5.9 32.6,3.7 24.7,3.7 24.7,-1.1 33.1,-1.1 33.1,-3.4 22.3,-3.4 22.3,13.7 33.6,13.7 33.6,11.4 
		24.7,11.4 	"/>
	<path d="M48.3,6c1.2-0.2,2.1-0.7,2.8-1.4c0.8-0.8,1.2-1.8,1.2-3.1c0-1.1-0.2-1.9-0.6-2.6c-0.4-0.6-1-1.1-1.6-1.4
		c-0.6-0.3-1.4-0.5-2.2-0.6c-0.8-0.1-1.6-0.1-2.4-0.1H41v17h2.4V6.2h2.2l4.4,7.3l0.1,0.1h2.9L48.3,6z M49.7,1.4
		c0,0.6-0.1,1.1-0.4,1.4c-0.3,0.3-0.7,0.6-1.1,0.7c-0.5,0.2-1,0.3-1.6,0.3c-0.6,0-1.2,0-1.7,0h-1.5v-5H46c0.5,0,0.9,0,1.4,0.1
		c0.4,0.1,0.9,0.2,1.2,0.4c0.3,0.2,0.6,0.4,0.8,0.8C49.6,0.4,49.7,0.9,49.7,1.4z"/>
</g>
<path style="fill:#231F20;" d="M74.9,5.9c0.5-1,1.1-1.8,1.8-2.5c0.7-0.7,1.5-1.3,2.4-1.7c0.9-0.4,1.7-0.6,2.5-0.6
	c0.7,0,1.4,0.1,1.9,0.4c0.5,0.3,1,0.7,1.3,1.1s0.6,1,0.8,1.5c0.2,0.6,0.2,1.1,0.2,1.6c0,1.1-0.2,2.1-0.7,3.1c-0.5,1-1,1.8-1.8,2.5
	c-0.7,0.7-1.5,1.3-2.4,1.7c-0.9,0.4-1.7,0.6-2.5,0.6c-0.7,0-1.3-0.1-1.8-0.4c-0.5-0.3-1-0.6-1.4-1c-0.4-0.4-0.7-0.9-0.9-1.5
	c-0.2-0.6-0.3-1.2-0.3-1.8C74.2,7.9,74.4,6.9,74.9,5.9z M76.7,12.7c0.5,0.5,1,0.7,1.7,0.7c0.6,0,1.1-0.2,1.6-0.5
	c0.5-0.3,1-0.8,1.4-1.3c0.4-0.5,0.8-1.2,1.1-1.8s0.6-1.3,0.8-2c0.2-0.7,0.4-1.3,0.5-1.9C83.9,5.3,84,4.8,84,4.4
	c0-0.9-0.2-1.6-0.6-2.1c-0.4-0.5-1-0.8-2-0.8c-0.5,0-1,0.2-1.5,0.5c-0.5,0.3-0.9,0.7-1.3,1.2c-0.4,0.5-0.8,1.1-1.1,1.7
	c-0.3,0.7-0.6,1.3-0.8,2c-0.2,0.7-0.4,1.3-0.5,2c-0.1,0.6-0.2,1.2-0.2,1.7C76,11.6,76.2,12.3,76.7,12.7z"/>
<path style="fill:#231F20;" d="M93.1,0c0.3-1.1,0.7-2.1,1.3-3s1.2-1.7,1.8-2.4c0.7-0.7,1.4-1.2,2.2-1.6c0.8-0.4,1.6-0.6,2.4-0.6
	c0.5,0,0.9,0.1,1.2,0.2c0.3,0.1,0.6,0.3,0.8,0.5c0.2,0.2,0.4,0.4,0.5,0.7c0.1,0.2,0.2,0.5,0.2,0.7c0,0.3-0.1,0.6-0.3,0.9
	c-0.2,0.3-0.5,0.5-1,0.5c-0.4,0-0.7-0.1-0.9-0.2s-0.3-0.3-0.3-0.5c0-0.2,0-0.3,0.1-0.5c0.1-0.1,0.2-0.3,0.2-0.4
	c0.1-0.1,0.2-0.2,0.2-0.3c0.1-0.1,0.1-0.2,0.1-0.4c0-0.3-0.1-0.5-0.3-0.6c-0.2-0.1-0.5-0.2-0.7-0.2c-0.8,0-1.6,0.3-2.2,0.8
	C98-6,97.4-5.4,97-4.7s-0.8,1.5-1.1,2.2c-0.3,0.8-0.5,1.4-0.6,1.9l-0.6,2.1h3.4L98,1.9h-3.4l-2.5,9.4c-0.3,1.2-0.7,2.3-1.2,3.5
	c-0.5,1.1-1,2.1-1.7,3c-0.6,0.9-1.3,1.5-2,2c-0.7,0.5-1.5,0.8-2.3,0.8c-0.2,0-0.5,0-0.8-0.1s-0.5-0.2-0.7-0.3
	c-0.2-0.1-0.4-0.3-0.6-0.6c-0.1-0.2-0.2-0.5-0.2-0.9c0-0.4,0.1-0.7,0.3-0.9s0.5-0.4,1-0.4c0.2,0,0.4,0,0.6,0.1
	c0.2,0.1,0.2,0.3,0.2,0.6c0,0.2,0,0.4-0.1,0.6c-0.1,0.2-0.1,0.5-0.1,0.7c0,0.2,0.1,0.4,0.2,0.5c0.2,0.1,0.4,0.2,0.6,0.2
	c0.8,0,1.5-0.5,2.2-1.6c0.7-1.1,1.4-2.8,2-5.2l3.1-11.5H90l0.1-0.4h2.6L93.1,0z"/>
<g>
	<path style="fill:none;" d="M154.1,7.7c0.3-0.8,0.5-1.7,0.5-2.6s-0.2-1.8-0.5-2.6c-0.3-0.8-0.7-1.5-1.3-2.1c-0.6-0.6-1.2-1.1-2-1.4
		c-0.8-0.3-1.6-0.5-2.6-0.5c-0.9,0-1.8,0.2-2.6,0.5c-0.8,0.3-1.4,0.8-2,1.4c-0.6,0.6-1,1.3-1.3,2.1c-0.3,0.8-0.5,1.7-0.5,2.6
		s0.2,1.8,0.5,2.6c0.3,0.8,0.7,1.5,1.3,2.1c0.6,0.6,1.2,1.1,2,1.4c0.8,0.3,1.6,0.5,2.6,0.5c0.9,0,1.8-0.2,2.6-0.5
		c0.8-0.3,1.4-0.8,2-1.4C153.4,9.3,153.8,8.5,154.1,7.7z"/>
	<polygon points="129.1,10 119.7,-3.4 116.9,-3.4 116.9,13.7 119.3,13.7 119.3,0.3 128.7,13.7 131.5,13.7 131.5,-3.4 129.1,-3.4 	
		"/>
	<path d="M154.6-1.3c-0.8-0.8-1.7-1.4-2.8-1.9c-1.1-0.4-2.3-0.7-3.6-0.7c-1.3,0-2.5,0.2-3.6,0.7c-1.1,0.4-2,1.1-2.8,1.9
		c-0.8,0.8-1.4,1.7-1.9,2.8c-0.4,1.1-0.7,2.3-0.7,3.6c0,1.3,0.2,2.5,0.7,3.6c0.4,1.1,1.1,2,1.9,2.8c0.8,0.8,1.7,1.4,2.8,1.9
		c1.1,0.4,2.3,0.7,3.6,0.7c1.3,0,2.5-0.2,3.6-0.7c1.1-0.4,2-1.1,2.8-1.9c0.8-0.8,1.4-1.8,1.9-2.8c0.4-1.1,0.7-2.3,0.7-3.6
		c0-1.3-0.2-2.5-0.7-3.6C156.1,0.5,155.4-0.5,154.6-1.3z M148.3,11.8c-0.9,0-1.8-0.2-2.6-0.5c-0.8-0.3-1.4-0.8-2-1.4
		c-0.6-0.6-1-1.3-1.3-2.1c-0.3-0.8-0.5-1.7-0.5-2.6s0.2-1.8,0.5-2.6c0.3-0.8,0.7-1.5,1.3-2.1c0.6-0.6,1.2-1.1,2-1.4
		c0.8-0.3,1.6-0.5,2.6-0.5c0.9,0,1.8,0.2,2.6,0.5c0.8,0.3,1.4,0.8,2,1.4c0.6,0.6,1,1.3,1.3,2.1c0.3,0.8,0.5,1.7,0.5,2.6
		s-0.2,1.8-0.5,2.6c-0.3,0.8-0.7,1.5-1.3,2.1c-0.6,0.6-1.2,1.1-2,1.4C150.1,11.6,149.2,11.8,148.3,11.8z"/>
	<polygon points="162.5,-1.1 167.9,-1.1 167.9,13.7 170.4,13.7 170.4,-1.1 175.9,-1.1 175.9,-3.4 162.5,-3.4 	"/>
	<polygon points="185.2,11.4 185.2,5.9 193.1,5.9 193.1,3.7 185.2,3.7 185.2,-1.1 193.7,-1.1 193.7,-3.4 182.8,-3.4 182.8,13.7 
		194.1,13.7 194.1,11.4 	"/>
</g>
<g>
	<path style="fill:#231F20;" d="M-79.7-54.8h4.9l11.8,27h-6.7l-2.3-5.7h-10.5l-2.3,5.7h-6.6L-79.7-54.8z M-77.4-46.9l-3.3,8.4h6.6
		L-77.4-46.9z"/>
	<path style="fill:#231F20;" d="M-43.5-48.2c-0.5-0.6-1.1-1.1-2-1.4c-0.8-0.3-1.6-0.4-2.3-0.4c-0.4,0-0.9,0.1-1.3,0.2
		c-0.5,0.1-0.9,0.3-1.3,0.5c-0.4,0.2-0.7,0.5-1,0.9c-0.3,0.4-0.4,0.8-0.4,1.3c0,0.8,0.3,1.4,0.9,1.9c0.6,0.4,1.4,0.8,2.3,1.1
		c0.9,0.3,1.9,0.6,3,0.9c1.1,0.3,2.1,0.7,3,1.3c0.9,0.6,1.7,1.3,2.3,2.3c0.6,0.9,0.9,2.2,0.9,3.8c0,1.5-0.3,2.8-0.8,3.9
		c-0.6,1.1-1.3,2-2.3,2.8c-1,0.7-2.1,1.3-3.3,1.6c-1.3,0.4-2.6,0.5-4,0.5c-1.8,0-3.4-0.3-4.9-0.8c-1.5-0.5-2.9-1.4-4.2-2.6l4.2-4.7
		c0.6,0.8,1.4,1.4,2.3,1.9c0.9,0.4,1.9,0.7,2.9,0.7c0.5,0,1-0.1,1.5-0.2c0.5-0.1,0.9-0.3,1.3-0.5c0.4-0.2,0.7-0.5,1-0.9
		c0.2-0.4,0.4-0.8,0.4-1.3c0-0.8-0.3-1.5-0.9-1.9c-0.6-0.5-1.4-0.9-2.3-1.2c-0.9-0.3-2-0.7-3.1-1c-1.1-0.3-2.1-0.8-3.1-1.3
		c-0.9-0.6-1.7-1.3-2.3-2.2c-0.6-0.9-0.9-2.1-0.9-3.6c0-1.5,0.3-2.7,0.9-3.8c0.6-1.1,1.3-2,2.3-2.7c1-0.7,2.1-1.3,3.3-1.7
		c1.2-0.4,2.5-0.6,3.9-0.6c1.5,0,3,0.2,4.4,0.6c1.4,0.4,2.7,1.2,3.9,2.2L-43.5-48.2z"/>
	<path style="fill:#231F20;" d="M-23.9-54.8h4.9l11.8,27H-14l-2.3-5.7h-10.5l-2.3,5.7h-6.6L-23.9-54.8z M-21.7-46.9l-3.3,8.4h6.6
		L-21.7-46.9z"/>
	<path style="fill:#231F20;" d="M-1.7-54.8h18.1v5.5H4.3v5.5h11.3v5.5H4.3v10.5h-6V-54.8z"/>
	<path style="fill:#231F20;" d="M68.3-29.7c-1.8,0.9-3.6,1.6-5.5,2c-1.9,0.4-3.9,0.6-5.8,0.6c-2.1,0-4.1-0.3-5.8-1
		c-1.8-0.7-3.3-1.6-4.6-2.8c-1.3-1.2-2.3-2.7-3-4.5c-0.7-1.8-1.1-3.7-1.1-5.9c0-2.2,0.4-4.1,1.1-5.9c0.7-1.8,1.7-3.2,3-4.5
		c1.3-1.2,2.8-2.2,4.6-2.8c1.8-0.7,3.7-1,5.8-1c2.2,0,4.2,0.3,6,0.8c1.8,0.5,3.4,1.4,4.8,2.7l-4.2,4.6c-0.8-0.8-1.7-1.5-2.7-1.9
		c-1-0.4-2.3-0.6-3.8-0.6c-1.3,0-2.4,0.2-3.5,0.6c-1,0.4-1.9,1-2.7,1.8c-0.7,0.8-1.3,1.7-1.7,2.8c-0.4,1.1-0.6,2.2-0.6,3.5
		c0,1.3,0.2,2.4,0.6,3.5c0.4,1.1,1,2,1.7,2.7c0.7,0.8,1.6,1.4,2.7,1.8c1,0.4,2.2,0.6,3.5,0.6c1.3,0,2.4-0.1,3.4-0.4
		c0.9-0.3,1.7-0.6,2.3-0.9v-4.4h-4.8v-5.5h10.6V-29.7z"/>
	<path style="fill:#231F20;" d="M76.5-54.8h18.4v5.5H82.5v5h11.7v5.5H82.5v5.5h13.1v5.5h-19V-54.8z"/>
	<path style="fill:#231F20;" d="M103.1-54.8h10.5c1.4,0,2.7,0.1,3.9,0.4c1.2,0.3,2.3,0.7,3.2,1.3c0.9,0.6,1.7,1.5,2.2,2.5
		c0.5,1.1,0.8,2.4,0.8,3.9c0,1.9-0.5,3.5-1.5,4.9c-1,1.3-2.4,2.2-4.4,2.5l6.9,11.4h-7.1L112-38.6h-2.9v10.8h-6V-54.8z M109.1-43.6
		h3.5c0.5,0,1.1,0,1.7-0.1c0.6,0,1.1-0.2,1.6-0.3c0.5-0.2,0.9-0.5,1.2-0.9c0.3-0.4,0.5-1,0.5-1.7c0-0.7-0.1-1.2-0.4-1.6
		c-0.3-0.4-0.6-0.7-1.1-0.9c-0.4-0.2-0.9-0.4-1.5-0.4c-0.6-0.1-1.1-0.1-1.6-0.1h-3.9V-43.6z"/>
	<path style="fill:#231F20;" d="M148.2-47.8c-0.6-0.7-1.3-1.3-2.2-1.6c-0.9-0.4-1.8-0.6-3-0.6c-1.1,0-2.2,0.2-3.1,0.6
		c-1,0.4-1.8,1-2.5,1.8c-0.7,0.8-1.2,1.7-1.6,2.8c-0.4,1.1-0.6,2.2-0.6,3.5c0,1.3,0.2,2.4,0.6,3.5c0.4,1.1,0.9,2,1.6,2.7
		c0.7,0.8,1.5,1.4,2.4,1.8c0.9,0.4,1.9,0.6,3,0.6c1.2,0,2.3-0.3,3.2-0.8c0.9-0.5,1.7-1.2,2.3-2.1l5,3.7c-1.1,1.6-2.6,2.8-4.3,3.5
		c-1.8,0.8-3.6,1.1-5.4,1.1c-2.1,0-4.1-0.3-5.8-1c-1.8-0.7-3.3-1.6-4.6-2.8c-1.3-1.2-2.3-2.7-3-4.5c-0.7-1.8-1.1-3.7-1.1-5.9
		c0-2.2,0.4-4.1,1.1-5.9c0.7-1.8,1.7-3.2,3-4.5c1.3-1.2,2.8-2.2,4.6-2.8c1.8-0.7,3.7-1,5.8-1c0.8,0,1.6,0.1,2.4,0.2
		c0.8,0.1,1.6,0.4,2.4,0.7c0.8,0.3,1.6,0.7,2.3,1.2c0.7,0.5,1.4,1.1,2,1.9L148.2-47.8z"/>
	<path style="fill:#231F20;" d="M159.2-54.8h6v10.1h11.6v-10.1h6v27h-6v-11.7h-11.6v11.7h-6V-54.8z"/>
	<path style="fill:#231F20;" d="M199.8-54.8h4.9l11.8,27h-6.7l-2.3-5.7H197l-2.3,5.7h-6.6L199.8-54.8z M202.1-46.9l-3.3,8.4h6.6
		L202.1-46.9z"/>
	<path style="fill:#231F20;" d="M222.1-54.8h6v11.2l10.5-11.2h7.8l-12,12.6l13.1,14.5h-8.3l-11-12.8v12.8h-6V-54.8z"/>
</g>
</svg>
