<svg x="0px" y="0px" viewBox="0 0 100 100" enable-background="new 0 0 100 100">
	<path fill="#000000" d="M97.669,62.766c-1.684-0.822-3.367-1.604-5.011-2.381c-9.848-4.598-18.674-8.169-25.772-10.386  c7.099-2.216,15.925-5.788,25.772-10.383c1.604-0.781,3.287-1.561,4.967-2.381c-1.844,0.123-3.731,0.247-5.539,0.411h-0.04  c-10.466,0.902-19.949,2.214-27.337,3.898C69.84,36.002,75.708,28.411,81.7,19.791c1.07-1.561,2.137-3.12,3.202-4.719  c-1.599,1.066-3.118,2.132-4.637,3.2c-5.664,3.94-10.835,7.798-15.312,11.452c-2.421,2.01-4.598,3.858-6.485,5.582  c1.684-7.387,2.998-16.869,3.899-27.417V7.847c0.165-1.848,0.289-3.693,0.453-5.582C62,3.947,61.178,5.59,60.4,7.231v0.04  c-2.958,6.321-5.499,12.273-7.554,17.69c-1.108,2.914-2.052,5.624-2.832,8.086c-0.78-2.463-1.724-5.172-2.832-8.086  c-2.052-5.417-4.598-11.327-7.512-17.608c-0.822-1.681-1.641-3.407-2.463-5.17c0.124,1.928,0.289,3.776,0.411,5.624  c0.615,6.936,1.355,13.379,2.299,19.125c0.493,3.078,1.026,5.87,1.601,8.373c-1.888-1.724-4.022-3.611-6.445-5.582  c-4.474-3.653-9.646-7.511-15.31-11.452c-1.519-1.068-3.036-2.134-4.638-3.2c1.066,1.599,2.134,3.158,3.201,4.719  c5.994,8.578,11.822,16.171,16.953,21.713c-2.463-0.575-5.254-1.108-8.333-1.602c-5.704-0.944-12.107-1.683-19.043-2.256  c-1.808-0.165-3.696-0.329-5.583-0.453c1.724,0.862,3.449,1.684,5.13,2.463c9.81,4.597,18.634,8.126,25.695,10.343  c-7.061,2.217-15.885,5.748-25.695,10.342c-1.681,0.781-3.407,1.603-5.13,2.465c1.888-0.124,3.776-0.289,5.583-0.453h0.04  c6.936-0.573,13.299-1.311,19.003-2.257c3.079-0.493,5.87-1.025,8.333-1.599c-5.13,5.539-10.958,13.131-16.953,21.712  c-1.066,1.56-2.134,3.119-3.201,4.718c1.602-1.066,3.119-2.132,4.638-3.198c5.664-3.944,10.836-7.8,15.31-11.451  c2.423-1.973,4.557-3.82,6.445-5.544c-0.575,2.505-1.108,5.295-1.601,8.373c-0.944,5.704-1.684,12.149-2.257,19.087  c0,0,0,0-0.042,0.041c-0.122,1.808-0.287,3.695-0.411,5.583c0.862-1.768,1.683-3.491,2.463-5.175  c2.956-6.276,5.5-12.188,7.512-17.608c1.148-2.954,2.092-5.663,2.872-8.124c2.216,7.223,5.828,16.089,10.301,25.612  c0.781,1.724,1.604,3.447,2.465,5.171c-0.124-1.888-0.288-3.736-0.453-5.544c-0.573-6.934-1.311-13.339-2.256-19.083  c-0.493-3.118-1.066-5.912-1.644-8.413c5.503,5.087,13.055,10.918,21.672,16.951c0,0,0,0,0.04,0.04  c1.52,1.065,3.079,2.136,4.682,3.202c-1.025-1.56-2.052-3.038-3.078-4.518v-0.04c-6.036-8.661-11.904-16.253-17.075-21.837  c7.388,1.684,16.871,2.999,27.337,3.9C93.894,62.517,95.781,62.642,97.669,62.766z M86.382,40.231  c-9.03,4.063-16.995,7.059-23.151,8.742c-1.848-0.533-3.527-0.904-5.047-1.148c1.271-0.986,2.586-2.216,4.021-3.653  C68.196,42.652,76.365,41.257,86.382,40.231z M57.731,54.513c-1.106-0.369-2.053-0.737-2.874-1.106  c-0.12-0.329-0.285-0.615-0.449-0.861c0.244,0,0.533,0,0.817-0.043C56.008,53.077,56.829,53.735,57.731,54.513z M54.408,57.715  c-0.739-0.861-1.354-1.639-1.89-2.341v-0.04c0.042-0.328,0.042-0.657,0.042-0.985c0.204,0.124,0.411,0.248,0.655,0.372  C53.627,55.539,54.037,56.524,54.408,57.715z M49.975,58.989c-0.247-1.15-0.411-2.176-0.493-3.078c0-0.044,0-0.044,0-0.044  c0.205-0.284,0.411-0.533,0.533-0.817c0.165,0.204,0.329,0.448,0.451,0.697C50.384,56.689,50.22,57.755,49.975,58.989z   M42.546,45.69c1.066,0.327,1.97,0.697,2.708,1.108c0.124,0.244,0.247,0.451,0.371,0.655c-0.247,0-0.535,0-0.822,0.042  C44.105,47.003,43.366,46.388,42.546,45.69z M45.707,42.53c0.737,0.82,1.313,1.6,1.806,2.257c-0.042,0.287-0.042,0.575-0.042,0.822  c-0.204-0.125-0.411-0.247-0.655-0.371C46.404,44.5,46.033,43.596,45.707,42.53z M50.015,41.215c0.247,1.15,0.369,2.134,0.451,2.996  c-0.165,0.247-0.329,0.493-0.451,0.739c-0.122-0.246-0.287-0.493-0.451-0.739C49.646,43.35,49.769,42.366,50.015,41.215z   M55.226,47.496c-0.324-0.042-0.573-0.042-0.861-0.042c0.164-0.287,0.288-0.493,0.453-0.82v-0.042  c0.821-0.369,1.764-0.737,2.873-1.108C56.829,46.306,56.008,46.961,55.226,47.496z M53.422,45.197  c-0.328,0.165-0.575,0.287-0.861,0.451c0-0.287,0-0.575-0.042-0.862c0.535-0.74,1.19-1.602,2.054-2.545  C54.2,43.35,53.791,44.335,53.422,45.197z M44.925,49.999c-0.205,0.123-0.409,0.247-0.655,0.411  c-0.862-0.042-1.848-0.207-2.956-0.411c1.108-0.204,2.094-0.369,2.956-0.411C44.516,49.753,44.72,49.877,44.925,49.999z   M44.802,52.502c0.287,0.043,0.575,0.043,0.822,0.043c-0.124,0.204-0.247,0.41-0.371,0.655c-0.737,0.41-1.642,0.781-2.708,1.107  C43.366,53.61,44.105,52.995,44.802,52.502z M46.772,54.801l0.042-0.04c0.287-0.124,0.491-0.248,0.738-0.412  c0,0.248,0,0.492,0.042,0.741c-0.493,0.697-1.108,1.519-1.888,2.381C46.033,56.444,46.404,55.539,46.772,54.801z M55.105,49.999  c0.204-0.122,0.409-0.246,0.657-0.411c0.862,0.042,1.844,0.207,2.954,0.411c-1.11,0.205-2.092,0.369-2.954,0.411  C55.515,50.246,55.31,50.122,55.105,49.999z M66.269,31.325c3.118-2.587,6.609-5.212,10.386-7.964  c-5.993,8.209-11.372,14.654-15.681,19.087c-1.888,0.533-3.571,1.066-5.046,1.642c0.572-1.477,1.105-3.203,1.639-5.091  C59.823,36.824,62.657,34.239,66.269,31.325z M54.737,25.701c1.435-3.818,3.158-7.922,5.086-12.231  c-0.533,5.006-1.146,9.563-1.804,13.626c-0.657,4.104-1.395,7.716-2.177,10.754c-1.435,1.395-2.627,2.71-3.611,3.94  c-0.286-1.519-0.657-3.243-1.15-5.131C51.903,33.622,53.094,30.01,54.737,25.701z M41.971,26.563  c-0.657-3.982-1.23-8.333-1.684-12.971c1.888,4.269,3.571,8.333,5.008,12.109c1.642,4.309,2.832,7.92,3.653,10.958V36.7  c-0.493,1.89-0.864,3.571-1.15,5.09c-0.944-1.19-2.135-2.463-3.489-3.818C43.49,34.937,42.71,31.161,41.971,26.563z M23.376,23.36  c3.778,2.752,7.265,5.377,10.385,7.964c3.571,2.914,6.403,5.458,8.66,7.634c0.493,1.928,1.026,3.611,1.602,5.048  c-1.437-0.575-3.079-1.068-4.966-1.601C34.706,37.973,29.371,31.529,23.376,23.36z M13.733,40.271  c4.595,0.453,8.906,1.026,12.886,1.683c4.557,0.74,8.291,1.519,11.329,2.299c1.355,1.395,2.667,2.585,3.898,3.571  c-1.517,0.245-3.2,0.615-5.048,1.148c0,0,0,0-0.04,0C30.601,47.29,22.761,44.293,13.733,40.271z M26.619,58.044  c-3.94,0.657-8.291,1.23-12.886,1.684c9.028-4.024,16.909-7.019,23.065-8.702c1.848,0.533,3.531,0.904,5.048,1.148  c-1.23,0.986-2.543,2.175-3.898,3.573h-0.042C34.87,56.524,31.176,57.307,26.619,58.044z M33.762,68.674  c-3.12,2.585-6.607,5.215-10.385,7.964c5.994-8.169,11.329-14.614,15.638-19.047h0.042c1.888-0.533,3.529-1.026,4.966-1.6  c-0.575,1.436-1.108,3.119-1.602,5.051C40.165,63.215,37.333,65.76,33.762,68.674z M45.295,74.297  c-1.437,3.776-3.12,7.84-5.008,12.109c0.453-4.638,1.026-8.991,1.684-12.971c0.739-4.558,1.519-8.333,2.339-11.367  c1.397-1.439,2.627-2.754,3.571-3.984c0.247,1.559,0.615,3.282,1.108,5.175C48.127,66.293,46.937,69.948,45.295,74.297z   M59.743,86.322c-4.104-9.191-7.019-16.951-8.662-22.903v-0.04c0.493-1.928,0.904-3.691,1.15-5.251  c0.984,1.23,2.133,2.501,3.487,3.855c0.822,3.079,1.604,6.854,2.341,11.452C58.717,77.415,59.29,81.729,59.743,86.322z   M76.654,76.638c-8.169-5.912-14.614-11.247-19.048-15.556c-0.488-1.972-1.065-3.695-1.639-5.171  c1.475,0.573,3.118,1.106,5.006,1.64C65.282,61.983,70.661,68.429,76.654,76.638z M62.204,55.827  c-1.435-1.435-2.75-2.667-4.021-3.653c1.52-0.244,3.199-0.615,5.047-1.148h0.044c6.156,1.684,14.077,4.678,23.147,8.742  C76.405,58.741,68.196,57.347,62.204,55.827z"/>
</svg>